# xmcd
#
# Track frame offsets:
#	150
#	12452
#	23272
#	34480
#	50979
#	65805
#	81229
#	94552
#	108706
#	124098
#	138176
#	156461
#	169059
#	182600
#	195427
#	207866
#	219814
#	232241
#	247842
#	260771
# 
# Disc length: 3631 seconds
# 
# Revision: 46
# Processed by: cddbd v1.4PL0 Copyright (c) Steve Scherf et al.
# Submitted via: Advanced CD Ripper Pro
#
DISCID=1e0e2d14
DTITLE=Queen - Greatest Hits I II and III (The Platinum Collection)
DYEAR=2000
DGENRE=Rock
TTITLE0=A Kind Of Magic
TTITLE1=Under Pressure
TTITLE2=Radio Ga Ga
TTITLE3=I Want It All
TTITLE4=I Want To Break Free
TTITLE5=Innuendo
TTITLE6=It's A Hard Life
TTITLE7=Breakthru
TTITLE8=Who Wants To Live Forever
TTITLE9=Headlong
TTITLE10=The Miracle
TTITLE11=I'm Going Slightly Mad
TTITLE12=The Invisible Man
TTITLE13=Hammer To Fall
TTITLE14=Friends Will Be Friends
TTITLE15=The Show Must Go On
TTITLE16=One Vision
TTITLE17=
TTITLE18=
TTITLE19=
EXTD=YEAR: 2000
EXTT0=
EXTT1=
EXTT2=
EXTT3=
EXTT4=
EXTT5=
EXTT6=
EXTT7=
EXTT8=
EXTT9=
EXTT10=
EXTT11=
EXTT12=
EXTT13=
EXTT14=
EXTT15=
EXTT16=
EXTT17=
EXTT18=
EXTT19=
PLAYORDER=
